/* XPM */
static char *_b214b654cfb4883c8c3554ea8e1a386EBYIds6qDazN9zIz[] = {
/* columns rows colors chars-per-pixel */
"20 20 2 1 ",
"  c None",
". c #E4E4E4",
/* pixels */
"                    ",
"                    ",
"                    ",
"      ........      ",
"     ...  ... .     ",
"    ... .. ... .    ",
"    .. ....  ..     ",
"    . ..........    ",
"    . ...  ..  .    ",
"    . .. ......     ",
"    . ..........    ",
"  ..  ...  ..  .    ",
"  . . ..........    ",
"   ..............   ",
"     .... .... ..   ",
"     .....    ...   ",
"      ..........    ",
"       ........     ",
"                    ",
"                    "
};
