/* XPM */
static char *_729391f9a8d4d2db474e482626e537alHVMh4jFqompQDyO[] = {
/* columns rows colors chars-per-pixel */
"50 50 28 1 ",
"  c None",
". c gray89",
"X c #E5E3E3",
"o c #E4E4E3",
"O c #E5E3E5",
"+ c #E3E5E5",
"@ c #E4E4E4",
"# c #E5E4E4",
"$ c #E5E5E4",
"% c #E4E4E5",
"& c #E5E4E5",
"* c #E4E5E5",
"= c gray90",
"- c #E6E4E4",
"; c #E6E5E5",
": c #E7E5E5",
"> c #E4E6E4",
", c #E5E7E5",
"< c #E6E6E4",
"1 c #E7E7E5",
"2 c #E5E5E6",
"3 c #E5E5E7",
"4 c #E6E4E6",
"5 c #E4E6E6",
"6 c #E6E6E6",
"7 c #E7E6E6",
"8 c #E6E7E6",
"9 c #E6E6E7",
/* pixels */
"=========   X=====================   o============",
"=========   .=====================   o============",
"=========    =====o============o==    ============",
"                  ==============                  ",
"                   ============                   ",
"                   =8==========                   ",
"===================  9======8  ===============9===",
"===================   ======   ========8==9=======",
"===================   ======   ==========o========",
"===================   ======   ==============o====",
"=============O=====   ======   ===================",
"========o==========   ======    ==================",
"===================    ....      ......=oo:=======",
"===================                        =======",
"=============+=====                         9:====",
"===================                         ======",
"===================   ======================  ====",
"===================   ======================   8==",
"===================   =================O===     ==",
"         ==o=======   ======O======o=====         ",
"         ===@=====:   ===============.===         ",
"         ==========   ==================8         ",
"=========   =======   ================   ======8==",
"=========    ==+===   ============+==.   =========",
"=========    =====     9=============X   =====o===",
"=========               @============.   =========",
"=========                ============.   =========",
"=========                ============o   =========",
"=========    ====:=:=====  ===+======.   =========",
"=========    =99898===8==   =========.   =========",
"=========   =============    ========    =======o=",
"=========   .============                =========",
"=========   ===========+=                =========",
"=========   O===+======X=                =========",
"         ======+=======+=    ====                 ",
"         ====X==O+=====X=   =====7                ",
"         ==============X=   ======                ",
".X      ===============+=   ======        ..=.....",
"===    ===@============o=   ======       =========",
"===   =================+=   =9====      ==========",
"===   :====+===========o=   ======     ===========",
"===   ===================   ======    ========+===",
"===   ===================   ======   =============",
"===9  ===============8===  =======   .============",
"======                   ===X=====   .============",
"=O====                   =========   .===O========",
"=======                 98========   X============",
"=========    +===========78==+====   .========o===",
"=========   @=====================   .===O========",
"=========   .=====================   .============"
};
