/* XPM */
static char *e642a4a5a8e74fd5dd60ea8f8f365e9e4TU8Q3EyFGeQopY7[] = {
/* columns rows colors chars-per-pixel */
"50 50 18 1 ",
"  c None",
". c gray89",
"X c #E5E5E3",
"o c #E3E5E5",
"O c #E4E4E4",
"+ c #E5E4E4",
"@ c #E5E5E4",
"# c #E4E4E5",
"$ c #E5E4E5",
"% c #E4E5E5",
"& c gray90",
"* c #E6E5E5",
"= c #E7E5E5",
"- c #E5E7E5",
"; c #E5E5E6",
": c #E5E5E7",
"> c #E6E6E6",
", c #E8E6E8",
/* pixels */
"&&&&&&&&&&&&&&&&&&&&&&&&&&&&&&&&&&&&&&&&&&&&&&&&&&",
"&&&&&&&&&&&&&&&&&&&&&&&&&&&&&&+&&&&&&&&&&&&&&&&&&&",
"&&&&&&&&&&&&&&&&&&&&&&&&&&&&&&&&&&&&&&&&&&&&&&&&&&",
"&&&&                                          &&o&",
"&&&                                            &&&",
"&&&                                            &&&",
"&&&    &&&-&&&                                 &&&",
"&&&   &&&&&&&=&                                &&&",
"&&&   &:&&&&&&&&                               &&&",
"&&&   &&&&&&&&&&                               &&&",
"&&=   &&&&&&&&&&                               &&&",
"&&&   &=&&&&&&&&                               :&&",
"&&&   &&&&&&&&&&    .......                    &&&",
"&&&   &&&&&&&&&&   &&&&&&&&&                   &&&",
"&&&   =&&&&&&&&&   &&&&&&&&&                   :&&",
"&&&   &&&&&&&&&&   &&&&&&&&&                   &&&",
"&&&   &&&&&&&&+&   &&&&&&&&&                   &&&",
"&&:   &&&&&&&&&&   &&&&&&&&-                   &&&",
"&&&   &&+&o&&&&&   &&&&&&&&&                   &&&",
"&&=   &&&&&&&&&&   &&&&&&&&&    &&&&&&&&       &&&",
"&&&   &&&&X&&&&&   &&&&&&&&&   &&&&&&&&&&      &&&",
"&&&   &&&&&&&&&&   &&&&&&&&&   &&&&&&&&&&      &&&",
"&&&   &&&&&&&&&&   &&&&&&&&&   &&&&&+&&&&      &&&",
"&&&   &&&&&&&&&&   &&&&&&&&&   -&&&&&&&&&      &&&",
"&&&   -&&&&o&&&&   &&&&&&&&&   &&&&+&&&&&      &&&",
"&&&   &=&&&&&&&&   &&&&&&&&-   &&&&&&&&&&      &&&",
"&&&   &&&&&&&&&&   &&&&&&&&&   &&&&&&&&&&      &&&",
"&&&   &&&&&&&&&&   &&&&&&&&&   &&&o&&&&&&      &&&",
"&&&   &&&&&&&&&&   &&&&&&&&&   &&&&&&&&&&      &&&",
"&&&   &&&&&&&&&&   &&&&&&&&&   &&X&&&&&&&      &&&",
"&&&   &&&&&&&&&&   &&&&&&&&-   &&&&&&&&&&      &&&",
"&&&   &&&&&&&&&&   &&&&&&&&&   &&&&&&&&&X      &&&",
"&&&   &&&&&&&&&&   &&&&&&&&&   &&&&&&&&&&      &&&",
"&&&   &&&&&&&&&&   &&&&&&&&&   &&&&&&&&&&      &&&",
"&&&   &&&&&&&&&&   &&&&&&&&&   &&&&&&&&&&      &&&",
"&&&   &&&&&&&&&&   &&&&&&&&&   &&&&&+&&&&      &&&",
"&&&   &&&&&&&&&&   &&&&&+&&&   &&&&&&&&&&      &&&",
"&&&   &&&&&&&&&&   &&&&&&+&&   &&&&&&&&&&      &&&",
"&&&   &&&&&&&&&o   &&&&&&&&&   &&&&&&&&+&      &&&",
"&&&   &&&&&&&&&&   &&&&&&&&&   &&&&&&&&&&      &&&",
"&&&   &&&&&&&&&&   &&&&&&&&&   &&&&&&&&&&      &X&",
"&&&   &&&&&&&&&&   &&&&&&&&&   &&&&&&&&&&      &&&",
"&&&   &&&&&&&&&&   &&&&&&&&&   &&&&&&&&&&      &&&",
"&&&   &&&&&&&X&&   &&&&&&&&&   &&&&&&&&&&      &&&",
"&&&   &&&&&&&+&&   &&&&&&&&-   &&&&&&&&&&      &&&",
"&&&   &&&&&+&&&,   &&&&&&&&&   &&&&&&&&&&      :o&",
"&&&& &&&&&&&&&&&& &&&&&&&&&&& &&&&&&&&&&&&    o&&&",
"&&&&&&&&&&&&&&&+&&&&&&&&&&&&&&&&&&&&&&&&&&&&&&&&&&",
"&&&&&&&&&&&&&&&&&&&&&&&o&&&&&&&&&&&&&&&&&&&&&&&&&&",
"&&&&&X&&&&&&&&&&&&&&&&&&&&&&&&&&&&o&&&&&&&&&&&o&&&"
};
