/* XPM */
static char *_4695e0a2e2d43e9914be29d0bd628bbmSSqQIOXMYDHzhoV[] = {
/* columns rows colors chars-per-pixel */
"50 50 24 1 ",
"  c None",
". c gray89",
"X c #E5E3E3",
"o c #E3E5E3",
"O c #E5E5E3",
"+ c #E3E3E5",
"@ c #E3E5E5",
"# c #E4E4E4",
"$ c #E5E5E4",
"% c #E5E4E5",
"& c #E4E5E5",
"* c gray90",
"= c #E6E5E5",
"- c #E7E5E5",
"; c #E5E6E5",
": c #E5E7E5",
"> c #E6E6E4",
", c #E4E4E6",
"< c #E5E5E7",
"1 c #E6E5E6",
"2 c #E6E6E6",
"3 c #E7E6E6",
"4 c #E6E7E6",
"5 c #E7E7E7",
/* pixels */
"                                                  ",
"                                                  ",
"                                                  ",
"                                                  ",
"                                                  ",
"                                                  ",
"                                                  ",
"                                                  ",
"                                                  ",
"                                                  ",
"                                                  ",
"                                                  ",
"                               .+.                ",
"               22   22   22   22.22               ",
"               22.  22   222  22.222              ",
"             2O  .22     22.22  2O222             ",
"            .22  .22     2#2#2  .22222            ",
"           ...   ..2     22#2#  .22.O22           ",
"          22.    .22     2#222  .22222O2          ",
"         222@    2.22    22#2    2.22+2           ",
"        222X.#222.2.222.2                         ",
"       .22@2222#2222.2222                         ",
"       X2.2..+2.222.o.+........     .....         ",
"       .22     222       222o222   2222222        ",
"       .22     22.       2#2O2#2.  22+2.22.       ",
"       ..2     22.       2@.2#2#.  2222..2.       ",
"        22     22.       2222###.  2..2222        ",
"         ..    2..       2.2#2#2.  2222.2         ",
"          22   22.       ..22#2#.  2#222          ",
"           2. 222.       222#222. 222.O           ",
"            .2222.       22.22+ .22+#2            ",
"             O.222       22.22  2O222             ",
"              2.#22      22.#.222#.2              ",
"               22222     2O22##2222               ",
"                ##.22    +2+#2#2.2                ",
"                 22222   2O22#2.2                 ",
"                  22222  2.#2222                  ",
"                   2.2222.222.2                   ",
"                    222.2222X2                    ",
"                     ..22...2                     ",
"                      222+22                      ",
"                       2O2O                       ",
"                        ..                        ",
"                                                  ",
"                                                  ",
"                                                  ",
"                                                  ",
"                                                  ",
"                                                  ",
"                                                  "
};
