/* XPM */
static char *ba8a91de01a44841e739105364588b02uRoQ61doOWWQBz1x[] = {
/* columns rows colors chars-per-pixel */
"50 50 27 1 ",
"  c None",
". c gray89",
"X c #E5E3E3",
"o c #E3E5E3",
"O c #E3E3E5",
"+ c #E5E3E5",
"@ c #E4E4E4",
"# c #E5E5E4",
"$ c #E5E4E5",
"% c #E4E5E5",
"& c gray90",
"* c #E6E5E5",
"= c #E7E5E5",
"- c #E5E6E5",
"; c #E5E7E5",
": c #E6E6E5",
"> c #E5E5E6",
", c #E5E5E7",
"< c #E6E5E6",
"1 c #E5E6E6",
"2 c #E5E7E7",
"3 c #E6E6E6",
"4 c #E7E6E6",
"5 c #E6E7E6",
"6 c #E7E7E6",
"7 c #E6E6E7",
"8 c #E7E6E7",
/* pixels */
"                                                  ",
"                                                  ",
"                                                  ",
"                                                  ",
"                                                  ",
"                                                  ",
"                                                  ",
"                &......&.......O..                ",
"               &&&&6&&&&&&&&&&&&&&&               ",
"              &6&&&&&&&&&&&&&&&&&&&               ",
"             8&&&&&6&   &&&&&&&&&  &&             ",
"            8&&&&&&&     &&&6&&&&  &&&            ",
"           &8&&&&&6&&....&8&&&&&&&&...&           ",
"          &&&&&&&6  &&&&&  &&&&8&&&  O&&          ",
"          &&&&&8&. &6&&&&& O&&&&&&&& .&           ",
"          &&&&&6 &&&&&&&&&&.    &&&&&.            ",
"          &&&&&  8&&&&&&&&&&    &&&&&8            ",
"          &&6&..&&&&&&@&&&&88O.&8&&&&88           ",
"          &&&  &&&&&&&&&&&&&&&&&&&&&&&&&          ",
"          &&&  &&&&&&&&&&&&&&&&&&&&&&&&&          ",
"          &&.  &&&&&&&&    &&&&&&    &&&          ",
"          &8.  &&&&&&&.    8&&&&8    .&8          ",
"          &&.  &&&&&&o....&6&&&&66.....           ",
"          &&O  &&&&&  .&&&&&&&&&&&&&&.            ",
"          &&&  &&&&6& &&&&&&&&&&&&&&&&            ",
"          &&.  &&&&&8&&&&&&&&&&&&&&&&&&           ",
"          &&   &&&&&&&&&&&&&6&&&&&&&&&6&          ",
"      .....    &&&&&&&&6..&6&&&&8&..&&&&          ",
"     8&&&&     &&&&&+&&    &&&&&&    8&&          ",
"     &&.&&     &&&&&&&&    &&&&&&    &&&          ",
"     &&&  &6   &&&&&&&&&&&&&&&&&+&&&&&&&          ",
"     &&.  &&&  &&&&&&&&&&&&&&&&&&&&&&&&&          ",
"      &..+&&&6&&&&&&&&&&&&&&&&&&&&&&&&&.&         ",
"       O&@&&&&&&&&&&&&&&&&@&&&&&&&&&&&&&&&        ",
"        &&&&@&&&&&&&&&@&6&&&&&&&&&&&&&&&&&.       ",
"            &&&&&&&&@&& &6&&&&&&&&&& &&&&&.       ",
"            o&&&&&&&&&&  &&&&&&&&&&  &&&&8.       ",
"            .&&&&&&&&&68oo.&oX..X&.&&6&&&&.       ",
"            &&&&&&&&&6&&&          &&&6&&&.       ",
"             &&&&&&&&&&&&&        &&&&&&&&        ",
"              &&&&&&&&&&&6&&&&&&&&6&&&&&8         ",
"               &&&&&&&&&&&&&&&&&&&&&6&&8          ",
"                &6&&&&&&&&&&&&&&&&&&&86           ",
"                 6&&&&&&&&&&&&&&&&&&&&            ",
"                  &&&&&8&&&&&&&&&&&6&             ",
"                                                  ",
"                                                  ",
"                                                  ",
"                                                  ",
"                                                  "
};
